# xmcd CD database file
#
# Track frame offsets:
#	150
#	21675
#	42517
#	64277
#	90387
#	114970
#	132065
#	150745
#	171895
#	193727
#	217570
#	239700
#	263542
#	286790
#	316575
#
# Disc length: 4459 seconds
#
# Revision: 0
# Processed by: cddbd v1.5.1PL0 Copyright (c) Steve Scherf et al.
# Submitted via: CDex 1.51
#
DISCID=c911690f
DTITLE=MIDORI KARASHIMA - Smile and Tears
DYEAR=2004
DGENRE=JPop
TTITLE0=永遠の楽園
TTITLE1=笑顔を探して
TTITLE2=涙のリフレイン
TTITLE3=イエスタデイ
TTITLE4=夏色物語
TTITLE5=サイレント・イヴ〜Summer Version〜
TTITLE6=星とワインとあなた
TTITLE7=笑顔
TTITLE8=Half and Half〜私自身〜
TTITLE9=頑張って、頑張って・・・
TTITLE10=瞳・元気〜都会のひまわり〜
TTITLE11=気をつけて
TTITLE12=Keep On "Keeping On"
TTITLE13=最後の手紙
TTITLE14=プレイバック part2 -Bonus track-
EXTD=YEAR: 2004
EXTT0=
EXTT1=
EXTT2=
EXTT3=
EXTT4=
EXTT5=
EXTT6=
EXTT7=
EXTT8=
EXTT9=
EXTT10=
EXTT11=
EXTT12=
EXTT13=
EXTT14=
PLAYORDER=
